<svg width="249" height="253" viewBox="0 0 249 253" fill="none" xmlns="http://www.w3.org/2000/svg">
<path d="M96.1534 2.43015C100.412 1.61349 104.414 0.791031 108.445 0.151503C112.136 -0.434264 113.345 0.613455 113.357 4.43814C113.412 21.7969 113.383 39.1559 113.432 56.5147C113.477 72.1032 113.658 87.6916 113.646 103.28C113.624 131.227 113.485 159.175 113.43 187.122C113.39 207.19 113.419 227.257 113.387 247.325C113.379 252.607 112.257 253.373 107.052 252.548C95.792 250.763 84.9273 247.648 74.493 242.98C70.0025 240.971 69.3384 238.375 72.7331 234.689C76.783 230.291 81.0254 226.072 85.282 221.878C86.7892 220.393 87.475 218.808 87.4699 216.665C87.4128 192.437 87.4261 168.209 87.3957 143.981C87.3909 140.111 86.9704 139.715 83.1273 139.711C66.5737 139.695 50.0201 139.689 33.4665 139.702C28.96 139.706 28.549 140.072 29.3939 144.551C32.1475 159.149 37.7805 172.511 46.2551 184.641C47.3116 186.153 48.6267 186.394 50.2178 186.391C58.2903 186.376 66.3628 186.396 74.4353 186.388C76.7371 186.385 79.0263 186.393 80.1678 188.982C81.3764 191.723 79.7451 193.578 78.0714 195.292C68.998 204.583 59.8963 213.845 50.7754 223.088C47.8776 226.024 46.9965 226.074 43.8225 223.282C28.6372 209.924 17.1767 193.776 9.48752 174.935C2.04051 156.687 -1.05161 137.58 0.314219 117.907C2.18808 90.9172 11.4877 66.7369 28.3992 45.7645C46.1613 23.7372 68.7581 9.41364 96.1534 2.43015ZM47.071 67.0823C38.3453 79.1549 32.5444 92.5476 29.5672 107.217C28.4758 112.595 29.0035 113.301 34.2255 113.302C50.2678 113.302 66.31 113.302 82.3522 113.288C87.0093 113.284 87.4211 112.835 87.4189 108.143C87.4086 85.5794 87.4014 63.0163 87.3982 40.4532C87.3975 35.6355 86.5123 35.1348 82.2004 37.3572C68.3966 44.4715 56.7243 54.1908 47.071 67.0823Z" fill="url(#paint0_linear_101_9)"/>
<path d="M217.566 155.016C218.608 151.066 219.649 147.371 220.149 143.551C220.576 140.295 220.088 139.657 216.812 139.651C200.107 139.62 183.402 139.621 166.697 139.653C163.126 139.66 162.557 140.313 162.553 144.157C162.536 161.525 162.544 178.894 162.543 196.262C162.542 202.918 162.614 209.575 162.5 216.229C162.459 218.59 163.106 220.371 164.793 222.014C168.612 225.734 172.288 229.61 175.995 233.449C176.774 234.256 177.566 235.099 178.135 236.061C179.949 239.122 179.394 241.03 176.203 242.502C166.284 247.078 155.997 250.432 145.23 252.153C144.032 252.345 142.842 252.614 141.638 252.744C137.914 253.148 136.834 252.217 136.816 248.317C136.757 236.045 136.771 223.773 136.752 211.501C136.71 184.152 136.625 156.802 136.631 129.452C136.64 88.6975 136.701 47.9425 136.766 7.18763C136.778 -0.205927 137.41 -0.711438 144.499 0.514721C170.848 5.07218 193.726 16.7927 212.611 36.2105C232.102 56.2514 244.02 80.3977 247.745 108.552C252.383 143.62 244.128 175.355 223.616 203.716C218.229 211.165 211.948 217.798 205.035 223.801C202.896 225.659 201.193 225.531 199.259 223.534C190.051 214.02 180.776 204.575 171.56 195.069C169.966 193.425 168.484 191.6 169.606 189.005C170.722 186.425 173.002 186.376 175.28 186.377C183.278 186.378 191.277 186.325 199.274 186.416C201.322 186.439 202.613 185.702 203.784 183.977C209.797 175.119 214.342 165.542 217.566 155.016ZM171.626 39.5066C169.927 38.5839 168.26 37.5931 166.523 36.7537C163.715 35.3964 162.601 36.0999 162.568 39.3216C162.504 45.4525 162.526 51.5843 162.529 57.7157C162.539 74.7592 162.544 91.8027 162.582 108.846C162.591 112.689 163.075 113.245 166.429 113.251C183.324 113.282 200.219 113.287 217.115 113.265C220.124 113.261 220.78 112.462 220.229 109.52C214.468 78.7473 198.521 55.3885 171.626 39.5066Z" fill="url(#paint1_linear_101_9)"/>
<defs>
<linearGradient id="paint0_linear_101_9" x1="56.8231" y1="0" x2="56.8231" y2="252.831" gradientUnits="userSpaceOnUse">
<stop stop-color="#CD8635" stop-opacity="0.890788"/>
<stop offset="0.161458" stop-color="#F59E0B"/>
<stop offset="0.895833" stop-color="#FDE68A" stop-opacity="0.682292"/>
<stop offset="1" stop-color="#B45309" stop-opacity="0.26"/>
</linearGradient>
<linearGradient id="paint1_linear_101_9" x1="192.815" y1="0" x2="192.815" y2="252.831" gradientUnits="userSpaceOnUse">
<stop stop-color="#CD8635" stop-opacity="0.890788"/>
<stop offset="0.161458" stop-color="#F59E0B"/>
<stop offset="0.895833" stop-color="#FDE68A" stop-opacity="0.682292"/>
<stop offset="1" stop-color="#B45309" stop-opacity="0.26"/>
</linearGradient>
</defs>
</svg>
