<svg version="1.1" id="Layer_1" xmlns="http://www.w3.org/2000/svg" xmlns:xlink="http://www.w3.org/1999/xlink" x="0px" y="0px"
	 width="100%" viewBox="0 0 1024 704" enable-background="new 0 0 1024 704" xml:space="preserve">
<path fill="#000000" opacity="1.000000" stroke="none" 
	d="
M465.246094,157.096619 
	C472.190643,155.787949 478.717072,154.469986 485.289185,153.445160 
	C491.308746,152.506485 493.280151,154.185425 493.299805,160.314377 
	C493.389038,188.131271 493.342316,215.948578 493.422516,243.765518 
	C493.494537,268.745697 493.789703,293.725677 493.770233,318.705597 
	C493.735291,363.490662 493.509064,408.275482 493.418457,453.060547 
	C493.353394,485.218109 493.400452,517.375977 493.349091,549.533569 
	C493.335602,557.997253 491.505768,559.226135 483.018860,557.903931 
	C464.656647,555.043274 446.939850,550.051514 429.924866,542.570740 
	C422.602203,539.351257 421.519318,535.191589 427.054962,529.284180 
	C433.659027,522.236572 440.576996,515.475830 447.518188,508.755280 
	C449.975922,506.375610 451.094330,503.835632 451.086060,500.401886 
	C450.992828,461.577454 451.014526,422.752777 450.964996,383.928223 
	C450.957092,377.725861 450.271515,377.091980 444.004639,377.085938 
	C417.010956,377.059784 390.017273,377.049347 363.023590,377.071350 
	C355.674957,377.077332 355.004700,377.663788 356.382507,384.841492 
	C360.872681,408.233551 370.058441,429.646973 383.877716,449.084076 
	C385.600586,451.507355 387.745026,451.892853 390.339691,451.888275 
	C403.503326,451.865112 416.667084,451.896423 429.830780,451.883118 
	C433.584259,451.879303 437.317169,451.891541 439.178528,456.040497 
	C441.149445,460.433746 438.489349,463.405273 435.760010,466.151764 
	C420.964233,481.040375 406.122162,495.883179 391.248871,510.694366 
	C386.523499,515.400024 385.086761,515.479675 379.910950,511.005432 
	C355.148621,489.599396 336.460175,463.723389 323.921539,433.530884 
	C311.777832,404.289307 306.735565,373.669647 308.962799,342.144592 
	C312.018463,298.894592 327.183197,260.146271 354.760406,226.538712 
	C383.724762,191.240631 420.573029,168.287476 465.246094,157.096619 
M385.208313,260.699860 
	C370.979340,280.045837 361.520020,301.507233 356.665131,325.014832 
	C354.885315,333.632751 355.745819,334.764709 364.261383,334.764862 
	C390.421143,334.765289 416.580902,334.765106 442.740662,334.743134 
	C450.334961,334.736755 451.006348,334.017578 451.002838,326.497711 
	C450.985992,290.340942 450.974274,254.184189 450.969055,218.027420 
	C450.967957,210.307205 449.524414,209.504913 442.493042,213.066147 
	C419.983459,224.466660 400.949738,240.041550 385.208313,260.699860 
z"/>
<path fill="#000000" opacity="1.000000" stroke="none" 
	d="
M665.618713,401.644531 
	C667.335266,395.314240 669.048889,389.392914 669.872192,383.271332 
	C670.573853,378.054138 669.770630,377.031708 664.378113,377.022034 
	C636.878967,376.972687 609.379578,376.974609 581.880432,377.024963 
	C576.003479,377.035736 575.066650,378.082916 575.060303,384.242798 
	C575.031433,412.075806 575.044983,439.908905 575.042542,467.741943 
	C575.041565,478.408295 575.159180,489.076752 574.971558,499.739838 
	C574.904968,503.522797 575.969971,506.376526 578.746887,509.009827 
	C585.033386,514.971191 591.084351,521.182129 597.187805,527.334473 
	C598.470215,528.627136 599.772766,529.978943 600.710510,531.519897 
	C603.695679,536.425354 602.781860,539.483459 597.530029,541.841980 
	C581.201477,549.174988 564.266602,554.550476 546.543640,557.308533 
	C544.570679,557.615601 542.612061,558.046204 540.629456,558.255310 
	C534.500671,558.901489 532.722168,557.411072 532.691650,551.160889 
	C532.595581,531.495178 532.618713,511.828888 532.587708,492.162811 
	C532.518494,448.334778 532.378479,404.506714 532.387939,360.678680 
	C532.402161,295.368378 532.503296,230.058044 532.610352,164.747803 
	C532.629761,152.899536 533.669495,152.089447 545.339050,154.054382 
	C588.713623,161.357758 626.374878,180.140091 657.462708,211.257370 
	C689.548035,243.373093 709.167053,282.067841 715.298035,327.185394 
	C722.934387,383.381531 709.345215,434.237946 675.577881,479.687531 
	C666.710144,491.623230 656.371460,502.254120 644.991638,511.873596 
	C641.470032,514.850342 638.666626,514.646118 635.484009,511.445038 
	C620.326111,496.199310 605.057495,481.063721 589.886841,465.830627 
	C587.262207,463.195129 584.822449,460.270599 586.669922,456.112366 
	C588.506592,451.978516 592.260559,451.899780 596.010010,451.900299 
	C609.176392,451.902130 622.343689,451.817200 635.508484,451.962769 
	C638.879639,452.000061 641.003784,450.819550 642.932007,448.054504 
	C652.830627,433.859741 660.312500,418.512573 665.618713,401.644531 
M589.994629,216.539413 
	C587.198730,215.060638 584.454163,213.472931 581.595337,212.127823 
	C576.972290,209.952637 575.138245,211.080078 575.083557,216.242920 
	C574.979370,226.067642 575.015076,235.894028 575.020691,245.719696 
	C575.036316,273.032074 575.044739,300.344482 575.107300,327.656769 
	C575.121399,333.814270 575.919434,334.706726 581.440125,334.716339 
	C609.252136,334.764709 637.064392,334.773254 664.876526,334.737946 
	C669.830994,334.731659 670.910156,333.450470 670.003540,328.736237 
	C660.519653,279.423035 634.268799,241.990311 589.994629,216.539413 
z"/>
</svg>