{
  "accessors": [
    {
      "bufferView": 2,
      "componentType": 5126,
      "count": 288,
      "max": [
        1.9092066287994385,
        33.35667419433594,
        11.028078079223633
      ],
      "min": [
        -6.600203514099121,
        24.84726333618164,
        5.671913146972656
      ],
      "type": "VEC3"
    },
    {
      "bufferView": 2,
      "byteOffset": 3456,
      "componentType": 5126,
      "count": 288,
      "max": [
        0.999991774559021,
        0.999991774559021,
        1.0
      ],
      "min": [
        -0.999991774559021,
        -0.999991774559021,
        -0.7485389113426208
      ],
      "type": "VEC3"
    },
    {
      "bufferView": 1,
      "componentType": 5126,
      "count": 288,
      "max": [
        1.0,
        1.0
      ],
      "min": [
        0.0,
        0.0
      ],
      "type": "VEC2"
    },
    {
      "bufferView": 0,
      "componentType": 5125,
      "count": 426,
      "type": "SCALAR"
    },
    {
      "bufferView": 2,
      "byteOffset": 6912,
      "componentType": 5126,
      "count": 288,
      "max": [
        1.9092066287994385,
        33.35667419433594,
        11.028078079223633
      ],
      "min": [
        -6.600203514099121,
        24.84726333618164,
        5.671913146972656
      ],
      "type": "VEC3"
    },
    {
      "bufferView": 2,
      "byteOffset": 10368,
      "componentType": 5126,
      "count": 288,
      "max": [
        0.999991774559021,
        0.999991774559021,
        1.0
      ],
      "min": [
        -0.999991774559021,
        -0.999991774559021,
        -0.7485389113426208
      ],
      "type": "VEC3"
    },
    {
      "bufferView": 1,
      "byteOffset": 2304,
      "componentType": 5126,
      "count": 288,
      "max": [
        1.0,
        1.0
      ],
      "min": [
        0.0,
        0.0
      ],
      "type": "VEC2"
    },
    {
      "bufferView": 0,
      "byteOffset": 1704,
      "componentType": 5125,
      "count": 426,
      "type": "SCALAR"
    },
    {
      "bufferView": 2,
      "byteOffset": 13824,
      "componentType": 5126,
      "count": 288,
      "max": [
        1.9092066287994385,
        33.35667419433594,
        11.028078079223633
      ],
      "min": [
        -6.600203514099121,
        24.84726333618164,
        5.671913146972656
      ],
      "type": "VEC3"
    },
    {
      "bufferView": 2,
      "byteOffset": 17280,
      "componentType": 5126,
      "count": 288,
      "max": [
        0.999991774559021,
        0.999991774559021,
        1.0
      ],
      "min": [
        -0.999991774559021,
        -0.999991774559021,
        -0.7485389113426208
      ],
      "type": "VEC3"
    },
    {
      "bufferView": 1,
      "byteOffset": 4608,
      "componentType": 5126,
      "count": 288,
      "max": [
        1.0,
        1.0
      ],
      "min": [
        0.0,
        0.0
      ],
      "type": "VEC2"
    },
    {
      "bufferView": 0,
      "byteOffset": 3408,
      "componentType": 5125,
      "count": 426,
      "type": "SCALAR"
    },
    {
      "bufferView": 2,
      "byteOffset": 20736,
      "componentType": 5126,
      "count": 288,
      "max": [
        1.9092066287994385,
        33.35667419433594,
        11.028078079223633
      ],
      "min": [
        -6.600203514099121,
        24.84726333618164,
        5.671913146972656
      ],
      "type": "VEC3"
    },
    {
      "bufferView": 2,
      "byteOffset": 24192,
      "componentType": 5126,
      "count": 288,
      "max": [
        0.999991774559021,
        0.999991774559021,
        1.0
      ],
      "min": [
        -0.999991774559021,
        -0.999991774559021,
        -0.7485389113426208
      ],
      "type": "VEC3"
    },
    {
      "bufferView": 1,
      "byteOffset": 6912,
      "componentType": 5126,
      "count": 288,
      "max": [
        1.0,
        1.0
      ],
      "min": [
        0.0,
        0.0
      ],
      "type": "VEC2"
    },
    {
      "bufferView": 0,
      "byteOffset": 5112,
      "componentType": 5125,
      "count": 426,
      "type": "SCALAR"
    }
  ],
  "asset": {
    "extras": {
      "author": "Moren (https://sketchfab.com/cwc)",
      "license": "CC-BY-4.0 (http://creativecommons.org/licenses/by/4.0/)",
      "source": "https://sketchfab.com/3d-models/diamond-7ce4669a227d4bc0a1131d737f42a801",
      "title": "Diamond"
    },
    "generator": "Sketchfab-14.57.0",
    "version": "2.0"
  },
  "bufferViews": [
    {
      "buffer": 0,
      "byteLength": 6816,
      "name": "floatBufferViews",
      "target": 34963
    },
    {
      "buffer": 0,
      "byteLength": 9216,
      "byteOffset": 6816,
      "byteStride": 8,
      "name": "floatBufferViews",
      "target": 34962
    },
    {
      "buffer": 0,
      "byteLength": 27648,
      "byteOffset": 16032,
      "byteStride": 12,
      "name": "floatBufferViews",
      "target": 34962
    }
  ],
  "buffers": [
    {
      "byteLength": 43680,
      "uri": "scene.bin"
    }
  ],
  "extensionsUsed": [
    "KHR_materials_clearcoat",
    "KHR_materials_specular"
  ],
  "images": [
    {
      "uri": "textures/Material_4201_clearcoat.png"
    }
  ],
  "materials": [
    {
      "alphaMode": "BLEND",
      "doubleSided": true,
      "extensions": {
        "KHR_materials_clearcoat": {
          "clearcoatFactor": 0.8137732337463097,
          "clearcoatRoughnessFactor": 0.08642938346912456,
          "clearcoatTexture": {
            "index": 0
          }
        },
        "KHR_materials_specular": {
          "specularColorFactor": [
            1.0,
            1.0,
            1.0
          ],
          "specularFactor": 1.0
        }
      },
      "name": "Material_4201",
      "pbrMetallicRoughness": {
        "baseColorFactor": [
          0.0,
          0.0,
          0.0,
          0.7587640349858503
        ],
        "metallicFactor": 0.0,
        "roughnessFactor": 0.025308051513058573
      }
    }
  ],
  "meshes": [
    {
      "name": "Object003_Material #420#1_0",
      "primitives": [
        {
          "attributes": {
            "NORMAL": 1,
            "POSITION": 0,
            "TEXCOORD_0": 2
          },
          "indices": 3,
          "material": 0,
          "mode": 4
        }
      ]
    },
    {
      "name": "Object004_Material #420#1_0",
      "primitives": [
        {
          "attributes": {
            "NORMAL": 5,
            "POSITION": 4,
            "TEXCOORD_0": 6
          },
          "indices": 7,
          "material": 0,
          "mode": 4
        }
      ]
    },
    {
      "name": "Object005_Material #420#1_0",
      "primitives": [
        {
          "attributes": {
            "NORMAL": 9,
            "POSITION": 8,
            "TEXCOORD_0": 10
          },
          "indices": 11,
          "material": 0,
          "mode": 4
        }
      ]
    },
    {
      "name": "Object006_Material #420#1_0",
      "primitives": [
        {
          "attributes": {
            "NORMAL": 13,
            "POSITION": 12,
            "TEXCOORD_0": 14
          },
          "indices": 15,
          "material": 0,
          "mode": 4
        }
      ]
    }
  ],
  "nodes": [
    {
      "children": [
        1
      ],
      "matrix": [
        1.0,
        0.0,
        0.0,
        0.0,
        0.0,
        2.220446049250313e-16,
        -1.0,
        0.0,
        0.0,
        1.0,
        2.220446049250313e-16,
        0.0,
        0.0,
        0.0,
        0.0,
        1.0
      ],
      "name": "Sketchfab_model"
    },
    {
      "children": [
        2
      ],
      "matrix": [
        1.0,
        0.0,
        0.0,
        0.0,
        0.0,
        0.0,
        1.0,
        0.0,
        0.0,
        -1.0,
        0.0,
        0.0,
        0.0,
        0.0,
        0.0,
        1.0
      ],
      "name": "10ee5ba402b545be9a2fa97829014ddc.fbx"
    },
    {
      "children": [
        3,
        6,
        9,
        12
      ],
      "name": "RootNode"
    },
    {
      "children": [
        4
      ],
      "matrix": [
        0.8764498445329263,
        -0.10424570245811683,
        0.11408658601023938,
        0.0,
        0.15454098352314835,
        0.591208028857308,
        -0.6470219444474841,
        0.0,
        3.9492390552571134e-07,
        0.657003155018238,
        0.600328326723114,
        0.0,
        0.0,
        1.781658411026001,
        7.787876654674619e-08,
        1.0
      ],
      "name": "Object003"
    },
    {
      "children": [
        5
      ],
      "matrix": [
        1.0,
        0.0,
        -0.0,
        0.0,
        0.0,
        1.0,
        0.0,
        0.0,
        0.0,
        0.0,
        1.0,
        0.0,
        2.345498561859131,
        -29.10196876525879,
        -8.349995613098145,
        1.0
      ],
      "name": "Object_4"
    },
    {
      "mesh": 0,
      "name": "Object003_Material #420#1_0"
    },
    {
      "children": [
        7
      ],
      "matrix": [
        0.8411420583724848,
        -1.2700891716121794e-07,
        -7.353497721851346e-08,
        0.0,
        7.353497721851426e-08,
        -1.8677105603714884e-16,
        0.8411420583724943,
        0.0,
        -1.270089171612175e-07,
        -0.841142058372488,
        1.0926106778173207e-14,
        0.0,
        6.291858673095703,
        2.2858452796936035,
        -10.92767333984375,
        1.0
      ],
      "name": "Object004"
    },
    {
      "children": [
        8
      ],
      "matrix": [
        1.0,
        0.0,
        -0.0,
        0.0,
        0.0,
        1.0,
        0.0,
        0.0,
        0.0,
        0.0,
        1.0,
        0.0,
        2.345498561859131,
        -29.10196876525879,
        -8.349995613098145,
        1.0
      ],
      "name": "Object_7"
    },
    {
      "mesh": 1,
      "name": "Object004_Material #420#1_0"
    },
    {
      "children": [
        10
      ],
      "matrix": [
        0.6124954903464507,
        -0.0908242923524538,
        0.40464062052163013,
        0.0,
        0.25420938646684543,
        -0.48800772725046054,
        -0.4943276803176038,
        0.0,
        0.32765935724028566,
        0.5483914360635741,
        -0.3728805436596204,
        0.0,
        12.452399253845215,
        1.493759036064148,
        -6.798679351806641,
        1.0
      ],
      "name": "Object005"
    },
    {
      "children": [
        11
      ],
      "matrix": [
        1.0,
        0.0,
        -0.0,
        0.0,
        0.0,
        1.0,
        0.0,
        0.0,
        0.0,
        0.0,
        1.0,
        0.0,
        2.345498561859131,
        -29.10196876525879,
        -8.349995613098145,
        1.0
      ],
      "name": "Object_10"
    },
    {
      "mesh": 2,
      "name": "Object005_Material #420#1_0"
    },
    {
      "children": [
        13
      ],
      "matrix": [
        -0.22364072320950346,
        -0.04738579652167112,
        0.31091883527339464,
        0.0,
        0.2524335407270406,
        -0.2546083298034928,
        0.1427690961942137,
        0.0,
        0.18759860852409685,
        0.2861123572249251,
        0.17854289971338935,
        0.0,
        7.214817523956299,
        0.7764025926589966,
        -2.6683826446533203,
        1.0
      ],
      "name": "Object006"
    },
    {
      "children": [
        14
      ],
      "matrix": [
        1.0,
        0.0,
        -0.0,
        0.0,
        0.0,
        1.0,
        0.0,
        0.0,
        0.0,
        0.0,
        1.0,
        0.0,
        2.345498561859131,
        -29.10196876525879,
        -8.349995613098145,
        1.0
      ],
      "name": "Object_13"
    },
    {
      "mesh": 3,
      "name": "Object006_Material #420#1_0"
    }
  ],
  "samplers": [
    {
      "magFilter": 9729,
      "minFilter": 9987,
      "wrapS": 10497,
      "wrapT": 10497
    }
  ],
  "scene": 0,
  "scenes": [
    {
      "name": "Sketchfab_Scene",
      "nodes": [
        0
      ]
    }
  ],
  "textures": [
    {
      "sampler": 0,
      "source": 0
    }
  ]
}
